<svg xmlns="http://www.w3.org/2000/svg" xmlns:xlink="http://www.w3.org/1999/xlink" width="100" zoomAndPan="magnify" viewBox="0 0 75 74.999997" height="100" preserveAspectRatio="xMidYMid meet" version="1.0"><defs><clipPath id="6798570b5e"><path d="M 0.109375 0 L 74.890625 0 L 74.890625 75 L 0.109375 75 Z M 0.109375 0 " clip-rule="nonzero"/></clipPath><clipPath id="0f1f1c05e3"><path d="M 12.859375 -0.199219 L 62.140625 -0.199219 C 65.519531 -0.199219 68.765625 1.144531 71.15625 3.535156 C 73.546875 5.925781 74.890625 9.167969 74.890625 12.550781 L 74.890625 62.25 C 74.890625 65.632812 73.546875 68.875 71.15625 71.265625 C 68.765625 73.65625 65.519531 75 62.140625 75 L 12.859375 75 C 9.480469 75 6.234375 73.65625 3.84375 71.265625 C 1.453125 68.875 0.109375 65.632812 0.109375 62.25 L 0.109375 12.550781 C 0.109375 9.167969 1.453125 5.925781 3.84375 3.535156 C 6.234375 1.144531 9.480469 -0.199219 12.859375 -0.199219 Z M 12.859375 -0.199219 " clip-rule="nonzero"/></clipPath><clipPath id="527ee5348d"><path d="M 33 18 L 64 18 L 64 59 L 33 59 Z M 33 18 " clip-rule="nonzero"/></clipPath><clipPath id="68e786cd7e"><path d="M 25.667969 28.515625 L 60.957031 13.757812 L 75.140625 47.660156 L 39.851562 62.421875 Z M 25.667969 28.515625 " clip-rule="nonzero"/></clipPath><clipPath id="7d03f3bcdc"><path d="M 25.667969 28.515625 L 60.957031 13.757812 L 75.140625 47.660156 L 39.851562 62.421875 Z M 25.667969 28.515625 " clip-rule="nonzero"/></clipPath><clipPath id="85efa05f05"><path d="M 23 11 L 48 11 L 48 58 L 23 58 Z M 23 11 " clip-rule="nonzero"/></clipPath><clipPath id="352597fa55"><path d="M 12.789062 40.953125 L 33.484375 8.785156 L 64.390625 28.671875 L 43.695312 60.839844 Z M 12.789062 40.953125 " clip-rule="nonzero"/></clipPath><clipPath id="dacbbecafe"><path d="M 12.789062 40.953125 L 33.484375 8.785156 L 64.390625 28.671875 L 43.695312 60.839844 Z M 12.789062 40.953125 " clip-rule="nonzero"/></clipPath><clipPath id="3b44b48c16"><path d="M 14 22 L 43 22 L 43 63 L 14 63 Z M 14 22 " clip-rule="nonzero"/></clipPath><clipPath id="7daf3bc01e"><path d="M 9.660156 60.695312 L 12.765625 22.570312 L 49.394531 25.554688 L 46.289062 63.679688 Z M 9.660156 60.695312 " clip-rule="nonzero"/></clipPath><clipPath id="2101081845"><path d="M 9.660156 60.695312 L 12.765625 22.570312 L 49.394531 25.554688 L 46.289062 63.679688 Z M 9.660156 60.695312 " clip-rule="nonzero"/></clipPath></defs><g clip-path="url(#6798570b5e)"><g clip-path="url(#0f1f1c05e3)"><path fill="#14c984" d="M 0.109375 -0.199219 L 74.890625 -0.199219 L 74.890625 74.871094 L 0.109375 74.871094 Z M 0.109375 -0.199219 " fill-opacity="1" fill-rule="nonzero"/></g></g><g clip-path="url(#527ee5348d)"><g clip-path="url(#68e786cd7e)"><g clip-path="url(#7d03f3bcdc)"><path fill="#84e5c1" d="M 55.816406 22.964844 C 39.011719 29.90625 33.28125 41.503906 39.292969 58.039062 C 39.367188 58.246094 39.074219 58.382812 38.960938 58.191406 C 36 53.210938 34.125 48.320312 33.710938 43.5625 C 32.355469 27.855469 48.523438 18.960938 62.363281 18.320312 C 63.054688 18.289062 63.5 19.007812 63.167969 19.617188 C 56.933594 31.023438 66.761719 50.933594 40.253906 51.613281 C 39.183594 39.054688 43.617188 29.144531 55.816406 22.964844 " fill-opacity="1" fill-rule="evenodd"/></g></g></g><g clip-path="url(#85efa05f05)"><g clip-path="url(#352597fa55)"><g clip-path="url(#dacbbecafe)"><path fill="#b2f0da" d="M 34.472656 19.289062 C 24.566406 34.535156 26.421875 47.335938 40.75 57.546875 C 40.929688 57.675781 40.765625 57.953125 40.566406 57.859375 C 35.296875 55.4375 30.980469 52.472656 27.945312 48.785156 C 17.921875 36.617188 26.195312 20.125 37.234375 11.746094 C 37.78125 11.332031 38.558594 11.671875 38.628906 12.359375 C 39.960938 25.292969 59.34375 36.121094 37.894531 51.707031 C 29.898438 41.972656 27.925781 31.292969 34.472656 19.289062 " fill-opacity="1" fill-rule="evenodd"/></g></g></g><g clip-path="url(#3b44b48c16)"><g clip-path="url(#7daf3bc01e)"><g clip-path="url(#2101081845)"><path fill="#e4fbf4" d="M 18.582031 31.367188 C 17.023438 49.484375 24.691406 59.902344 42.140625 62.160156 C 42.359375 62.1875 42.34375 62.511719 42.125 62.527344 C 36.335938 62.867188 31.132812 62.285156 26.71875 60.464844 C 12.144531 54.453125 11.671875 36.007812 17.464844 23.417969 C 17.753906 22.789062 18.597656 22.726562 18.984375 23.300781 C 26.25 34.078125 48.449219 34.5 36.871094 58.355469 C 25.230469 53.53125 18.460938 45.042969 18.582031 31.367188 " fill-opacity="1" fill-rule="evenodd"/></g></g></g></svg>